<?xml version="1.0" standalone="no"?>
<!DOCTYPE svg PUBLIC "-//W3C//DTD SVG 20010904//EN"
 "http://www.w3.org/TR/2001/REC-SVG-20010904/DTD/svg10.dtd">
<svg version="1.0" xmlns="http://www.w3.org/2000/svg"
 width="808.000000pt" height="808.000000pt" viewBox="0 0 808.000000 808.000000"
 preserveAspectRatio="xMidYMid meet">
<metadata>
Created by potrace 1.14, written by Peter Selinger 2001-2017
</metadata>
<g transform="translate(0.000000,808.000000) scale(0.100000,-0.100000)"
fill="#000000" stroke="none">
<path d="M0 4040 l0 -4040 4040 0 4040 0 0 4040 0 4040 -4040 0 -4040 0 0
-4040z m4305 3901 c407 -61 667 -147 816 -272 71 -59 144 -174 173 -272 43
-142 66 -324 66 -513 0 -94 -3 -173 -6 -177 -3 -3 -18 8 -32 24 -26 29 -29 29
-58 17 -26 -11 -30 -16 -23 -35 8 -23 87 -86 98 -79 4 3 8 -7 9 -22 1 -15 9
-31 18 -37 9 -5 47 -32 84 -60 211 -156 352 -351 366 -507 6 -61 5 -64 -29
-104 -20 -22 -32 -45 -29 -51 4 -5 40 -31 79 -57 71 -47 113 -87 113 -110 0
-6 19 -43 41 -81 41 -69 54 -102 125 -315 73 -221 98 -388 74 -505 -18 -90
-75 -190 -157 -276 l-73 -76 0 -69 c0 -81 -9 -97 -92 -172 -93 -83 -124 -95
-237 -90 -99 5 -168 26 -205 64 -18 17 -19 17 -45 -13 -26 -31 -81 -67 -67
-44 4 6 0 11 -10 11 -11 0 -15 -6 -11 -19 3 -13 1 -18 -8 -14 -8 2 -22 0 -32
-4 -10 -5 -31 -7 -48 -3 -16 3 -56 1 -87 -6 -31 -6 -61 -8 -68 -4 -20 12 -172
10 -167 -3 2 -6 14 -14 28 -18 l24 -7 -24 -1 c-13 -1 -29 6 -35 14 -16 22
-516 32 -516 10 0 -11 18 -15 73 -18 39 -1 0 -3 -88 -4 -91 0 -136 3 -103 6
31 3 63 12 70 19 6 6 7 12 2 12 -6 0 -15 -5 -22 -12 -9 -9 -12 -9 -12 0 0 10
-68 12 -302 11 -167 -1 -366 -5 -443 -9 l-140 -7 165 -3 c91 -2 183 -3 205 -2
21 2 36 0 32 -4 -4 -4 -191 -9 -415 -11 -340 -3 -416 -6 -460 -20 -96 -29
-230 8 -285 80 -49 65 -49 70 -51 922 -1 906 -6 845 82 1023 108 218 253 382
458 520 97 65 90 77 -21 37 -287 -104 -632 -345 -723 -505 -42 -74 -77 -110
-102 -105 -12 2 -24 -3 -29 -14 -6 -10 -10 -167 -11 -372 0 -348 0 -354 -21
-371 -12 -10 -32 -18 -45 -18 -12 0 -26 -5 -30 -12 -13 -20 -17 -888 -4 -888
5 0 10 -10 11 -22 1 -15 5 -8 11 17 6 22 16 43 22 47 6 4 13 59 17 125 l6 118
3 -125 c9 -420 7 -445 -38 -457 -26 -6 -87 1 -144 17 -47 14 -117 66 -140 106
-34 58 -43 170 -14 179 6 2 38 9 71 16 47 9 68 19 97 49 l38 38 0 390 0 390
-31 11 c-18 6 -54 11 -81 11 -89 0 -88 -2 -88 182 l0 161 63 -6 c34 -3 72 -9
85 -13 l22 -6 0 164 c0 126 -4 176 -16 212 -16 46 -16 49 4 74 12 15 37 59 57
99 32 65 35 79 35 160 0 169 71 742 121 971 54 248 98 356 189 454 116 127
291 189 705 248 231 34 334 39 690 35 270 -3 356 -7 470 -24z m-2098 -2853
c-3 -7 -5 -2 -5 12 0 14 2 19 5 13 2 -7 2 -19 0 -25z m-50 -750 c-3 -8 -6 -5
-6 6 -1 11 2 17 5 13 3 -3 4 -12 1 -19z m1856 -295 c-23 -2 -64 -2 -90 0 -26
2 -7 3 42 3 50 0 71 -1 48 -3z m-800 -20 c-18 -2 -48 -2 -65 0 -18 2 -4 4 32
4 36 0 50 -2 33 -4z m1500 0 c-216 -2 -570 -2 -785 0 -216 1 -40 2 392 2 432
0 608 -1 393 -2z m1419 -321 c9 -9 14 -64 17 -198 l3 -186 27 5 c14 3 44 10
66 16 22 6 82 11 133 11 81 0 100 -4 156 -29 86 -39 147 -97 182 -174 24 -54
29 -77 32 -174 l4 -112 -38 -76 c-21 -42 -53 -94 -72 -116 -60 -69 -220 -149
-301 -149 l-46 0 -3 -558 c-1 -306 1 -606 5 -666 5 -59 5 -158 0 -220 -7 -99
-12 -119 -45 -185 -71 -142 -214 -256 -349 -280 -94 -16 -170 -22 -153 -11 13
8 13 10 -1 10 -9 0 -19 -7 -23 -15 -5 -14 -48 -15 -335 -15 -181 1 -331 4
-333 8 -2 4 -532 4 -1178 -1 -646 -4 -1263 -6 -1370 -4 -183 4 -199 5 -264 30
-98 38 -138 71 -236 195 -53 67 -69 108 -72 187 -1 50 -2 50 -5 8 -4 -41 -4
-42 -23 -23 -25 25 -63 101 -83 165 -20 65 -26 261 -28 880 l-2 490 70 3 c64
3 71 5 75 25 2 12 1 262 -4 555 -5 357 -4 540 2 553 20 37 70 52 195 59 66 4
989 7 2052 6 1566 -1 1934 -3 1945 -14z m-4358 -348 c14 -5 16 -50 16 -394 0
-214 -3 -395 -6 -404 -13 -33 -157 -12 -241 35 -66 38 -153 132 -190 206 -25
52 -28 71 -32 174 -3 125 9 171 66 246 30 41 134 112 187 129 43 13 173 18
200 8z"/>
<path d="M3455 7754 c-423 -31 -650 -70 -778 -136 -122 -63 -177 -141 -236
-333 -44 -145 -92 -415 -107 -600 -3 -44 -12 -108 -20 -143 -17 -76 -18 -102
-3 -102 6 0 44 26 84 59 40 32 135 94 211 138 239 139 435 218 694 281 260 64
365 76 665 76 276 1 439 -12 563 -43 294 -73 384 -102 563 -181 61 -28 114
-48 118 -46 10 6 -7 169 -24 236 -8 30 -19 96 -25 146 -15 133 -39 243 -65
294 -31 61 -107 145 -159 174 -107 62 -322 117 -621 157 -132 18 -217 22 -485
24 -179 1 -347 1 -375 -1z"/>
<path d="M2075 5841 c-3 -16 -3 -46 1 -67 4 -21 7 -60 8 -88 1 -40 5 -51 19
-54 15 -3 17 8 17 117 0 113 -1 121 -19 121 -13 0 -21 -9 -26 -29z"/>
<path d="M3045 5808 c-80 -44 -125 -130 -125 -237 0 -91 25 -151 79 -186 52
-35 90 -40 155 -21 126 37 200 156 175 278 -12 56 -72 129 -130 158 -42 22
-122 26 -154 8z"/>
<path d="M3595 5761 c-40 -10 -86 -35 -107 -58 -22 -24 -55 -98 -63 -144 -15
-79 39 -174 120 -210 50 -23 136 -24 181 -3 139 66 167 269 51 371 -53 46
-112 61 -182 44z"/>
<path d="M5365 5640 c-240 -54 -463 -231 -548 -435 -72 -171 -73 -278 -7 -469
26 -77 111 -237 161 -303 22 -29 42 -59 44 -65 4 -10 -202 -14 -1012 -16 -799
-2 -1019 -5 -1025 -15 -16 -25 -9 -56 15 -62 12 -3 492 -7 1067 -9 575 -3
1076 -7 1113 -11 104 -10 143 26 91 86 -8 9 -12 18 -9 21 3 3 -28 41 -70 84
-198 207 -273 406 -231 623 17 93 55 181 109 257 38 52 147 154 166 154 6 0
11 4 11 9 0 5 45 24 100 42 93 29 108 31 198 26 150 -8 270 -60 386 -167 32
-30 43 -36 39 -21 -13 49 -169 178 -290 240 -49 24 -154 51 -198 50 -16 0 -66
-9 -110 -19z"/>
<path d="M5547 5280 c-144 -37 -260 -167 -287 -323 -13 -73 1 -150 41 -229 32
-63 115 -144 178 -175 49 -24 68 -28 146 -28 77 0 98 4 148 27 63 30 156 112
194 171 35 56 57 151 49 220 -12 122 -106 248 -230 311 -58 29 -175 42 -239
26z"/>
<path d="M3230 4979 c-122 -55 -178 -189 -135 -319 73 -219 390 -202 461 24
32 100 -7 218 -89 274 -69 47 -162 55 -237 21z"/>
<path d="M3333 4383 c9 -2 25 -2 35 0 9 3 1 5 -18 5 -19 0 -27 -2 -17 -5z"/>
<path d="M2276 3542 c-9 -15 -11 -196 -11 -1335 l0 -1177 -33 -6 c-18 -4 -50
-4 -72 0 -63 10 -70 3 -70 -73 0 -38 5 -74 13 -83 11 -15 128 -17 1292 -22
704 -3 1291 -6 1305 -5 14 0 106 1 205 3 l180 2 -170 -6 c-93 -3 124 -6 483
-6 469 1 655 4 660 12 4 6 16 14 27 18 45 14 78 123 49 165 -16 22 -18 22
-187 17 -95 -3 -493 -7 -885 -8 -703 -3 -713 -3 -730 17 -16 18 -29 20 -171
20 -84 0 -146 2 -137 3 32 7 13 37 -24 39 -19 0 -25 -1 -12 -4 24 -5 29 -18
10 -29 -7 -5 -8 -3 -3 6 8 14 5 13 -150 -10 -47 -7 -45 -7 32 -9 45 0 84 -4
86 -8 7 -10 -169 0 -179 10 -4 4 -2 7 5 7 8 0 11 11 9 28 -3 26 -5 27 -72 30
-39 2 -74 -2 -80 -8 -5 -5 -27 -10 -48 -10 l-38 0 0 180 0 180 40 0 40 0 0
164 0 164 40 7 c22 4 38 10 35 15 -3 4 4 6 15 3 12 -3 20 0 20 7 0 7 7 10 16
6 8 -3 13 -2 10 2 -7 11 6 30 24 34 17 4 70 56 70 69 0 5 5 9 11 9 16 0 37 25
45 54 6 25 14 30 42 27 6 -1 12 5 12 14 0 9 3 14 8 12 4 -2 17 9 30 24 23 28
23 29 4 29 -24 0 -23 14 5 62 19 33 33 74 39 123 6 45 7 246 1 252 -4 3 -7
-26 -7 -65 0 -39 -7 -100 -15 -136 -8 -36 -14 -69 -14 -73 2 -8 -4 -25 -34
-93 -33 -74 -132 -174 -222 -222 -33 -18 -62 -33 -65 -33 -3 -1 -30 -6 -60
-13 -113 -24 -211 -12 -309 36 -78 38 -178 141 -221 226 -33 66 -35 76 -39
188 -3 109 -1 123 24 185 61 154 178 263 330 308 62 19 194 19 260 1 65 -18
150 -63 186 -98 18 -19 29 -24 32 -15 4 9 6 9 6 -1 1 -13 112 -125 118 -118 2
2 -14 28 -36 57 -23 30 -41 58 -41 62 0 5 -16 25 -36 44 -28 26 -39 32 -45 22
-6 -11 -12 -10 -27 4 -10 10 -26 15 -35 12 -10 -5 -15 -1 -14 12 2 13 -5 18
-23 20 -50 3 -54 6 -20 13 32 7 33 7 7 9 -16 0 -36 5 -45 10 -38 20 -266 39
-276 23 -3 -5 -17 -7 -31 -4 -14 2 -25 0 -25 -6 0 -5 -9 -12 -20 -15 -11 -3
-20 -1 -20 4 0 5 -7 9 -15 9 -9 0 -15 9 -15 22 0 17 -3 19 -12 10 -16 -16 -28
-15 -28 3 0 8 9 15 20 15 13 0 20 7 20 20 0 13 7 20 20 20 13 0 20 7 20 20 0
11 7 20 15 20 8 0 15 9 15 20 0 16 -7 20 -34 20 -33 0 -35 -2 -38 -37 l-3 -38
-75 3 c-41 2 -76 5 -78 7 -2 2 -1 33 3 69 7 63 8 66 34 66 34 0 51 17 51 50 0
34 -17 50 -52 50 -24 0 -28 4 -28 30 0 26 4 30 28 30 37 0 52 17 52 57 0 23 5
33 15 33 11 0 15 11 15 40 0 38 1 40 31 40 26 0 31 3 26 20 -5 19 0 20 116 21
171 1 201 14 52 22 -166 9 -1223 8 -1229 -1z m964 -582 c0 -36 -2 -40 -26 -40
-14 0 -32 6 -40 14 -8 8 -14 26 -14 40 0 24 4 26 40 26 l40 0 0 -40z m-5 -57
c-11 -2 -31 -16 -44 -31 -13 -15 -20 -20 -16 -12 16 31 39 50 59 49 20 -1 20
-2 1 -6z m-15 -113 c0 -5 -4 -10 -10 -10 -5 0 -10 5 -10 10 0 6 5 10 10 10 6
0 10 -4 10 -10z m453 -967 c-7 -2 -19 -2 -25 0 -7 3 -2 5 12 5 14 0 19 -2 13
-5z m-33 -733 c0 -5 -18 -10 -40 -10 -22 0 -40 5 -40 10 0 6 18 10 40 10 22 0
40 -4 40 -10z m120 -30 c0 -5 -4 -10 -10 -10 -5 0 -10 5 -10 10 0 6 5 10 10
10 6 0 10 -4 10 -10z"/>
<path d="M3170 2974 c0 -8 6 -22 14 -30 25 -24 46 -17 46 16 0 27 -3 30 -30
30 -21 0 -30 -5 -30 -16z"/>
<path d="M3680 3540 l-45 -7 53 -1 c29 -1 52 2 52 8 0 6 -3 9 -7 8 -5 0 -28
-4 -53 -8z"/>
<path d="M3778 3523 c12 -2 32 -2 45 0 12 2 2 4 -23 4 -25 0 -35 -2 -22 -4z"/>
<path d="M3893 3523 c9 -2 25 -2 35 0 9 3 1 5 -18 5 -19 0 -27 -2 -17 -5z"/>
<path d="M3365 3490 c-4 -6 18 -10 59 -10 37 0 66 4 66 10 0 6 -26 10 -59 10
-33 0 -63 -4 -66 -10z"/>
<path d="M3338 3393 c12 -2 32 -2 45 0 12 2 2 4 -23 4 -25 0 -35 -2 -22 -4z"/>
<path d="M3487 3393 c-4 -3 -7 -39 -7 -79 l0 -73 -37 -3 c-36 -3 -38 -5 -38
-38 0 -33 2 -35 38 -38 36 -3 37 -4 37 -43 0 -38 -1 -39 -35 -39 -28 0 -35 -4
-35 -20 0 -18 7 -20 75 -20 68 0 75 2 75 20 0 17 7 20 38 20 l38 0 0 160 -1
160 -71 0 c-39 0 -74 -3 -77 -7z"/>
<path d="M5233 2660 c-198 -100 -189 -362 16 -453 53 -23 157 -20 209 7 177
91 186 335 17 441 -38 23 -62 30 -114 33 -58 3 -74 0 -128 -28z"/>
<path d="M3434 2655 c-96 -50 -154 -150 -154 -263 1 -242 294 -343 477 -164
123 120 79 354 -82 428 -72 34 -174 33 -241 -1z"/>
<path d="M4030 2586 c0 -8 4 -17 9 -20 5 -4 7 3 4 14 -6 23 -13 26 -13 6z"/>
<path d="M6160 2552 c0 -4 14 -16 30 -25 17 -10 30 -13 30 -8 0 6 -13 17 -30
26 -16 9 -30 12 -30 7z"/>
<path d="M6248 2513 c6 -2 18 -2 25 0 6 3 1 5 -13 5 -14 0 -19 -2 -12 -5z"/>
<path d="M3745 1820 c-16 -7 -17 -9 -3 -9 9 -1 20 4 23 9 7 11 7 11 -20 0z"/>
<path d="M4343 1600 c0 -47 2 -66 4 -42 2 23 2 61 0 85 -2 23 -4 4 -4 -43z"/>
<path d="M4310 1360 c0 -22 3 -40 8 -40 4 0 6 18 4 40 -2 22 -6 40 -8 40 -2 0
-4 -18 -4 -40z"/>
<path d="M3570 1360 c0 -27 3 -30 30 -30 27 0 30 3 30 30 0 27 -3 30 -30 30
-27 0 -30 -3 -30 -30z"/>
<path d="M3650 1280 c0 -27 3 -30 30 -30 27 0 30 3 30 30 0 27 -3 30 -30 30
-27 0 -30 -3 -30 -30z"/>
<path d="M3633 1155 c0 -8 4 -12 9 -9 5 3 6 10 3 15 -9 13 -12 11 -12 -6z"/>
<path d="M4200 1090 c0 -5 18 -10 40 -10 22 0 40 5 40 10 0 6 -18 10 -40 10
-22 0 -40 -4 -40 -10z"/>
</g>
</svg>
